<svg width="48" height="48" viewBox="0 0 48 48" fill="none" xmlns="http://www.w3.org/2000/svg">
<path d="M40.8128 44.5401C35.9687 49.3842 23.5631 44.8325 13.1041 34.3736C2.64517 23.9147 -1.90653 11.5091 2.9376 6.6649L6.12709 3.47541C8.32898 1.27352 11.9571 1.33173 14.2308 3.60541L19.1711 8.54565C21.4448 10.8193 21.503 14.4475 19.3011 16.6494L18.616 17.3345C17.4272 18.5233 17.3109 20.4411 18.4155 21.7797C19.481 23.0709 20.6297 24.357 21.8752 25.6025C23.1207 26.848 24.4068 27.9967 25.698 29.0622C27.0366 30.1668 28.9544 30.0505 30.1432 28.8617L30.8283 28.1766C33.0302 25.9747 36.6584 26.0329 38.932 28.3066L43.8723 33.2469C46.146 35.5206 46.2042 39.1487 44.0023 41.3506L40.8128 44.5401Z" fill="white" stroke="white" stroke-width="1.5"/>
<path d="M37.2579 16.7345C36.6531 15.2592 35.7518 13.877 34.5539 12.6792C33.4237 11.5489 32.1294 10.6827 30.7476 10.0805" stroke="white" stroke-width="1.5" stroke-linecap="round"/>
<path d="M30.7448 1.64432C34.053 2.84278 37.1569 4.76807 39.809 7.42025C42.5278 10.139 44.4827 13.3324 45.6738 16.7339" stroke="white" stroke-width="1.5" stroke-linecap="round"/>
</svg>
