<svg width="50" height="38" viewBox="0 0 50 38" fill="none" xmlns="http://www.w3.org/2000/svg">
<path d="M0 32.2228C0 30.8539 1.10975 29.7441 2.47869 29.7441H47.0951C48.464 29.7441 49.5737 30.8539 49.5737 32.2228V34.7015C49.5737 36.0705 48.464 37.1802 47.0951 37.1802H2.47869C1.10975 37.1802 0 36.0705 0 34.7015V32.2228Z" fill="white"/>
<path d="M47.0933 29.7432V29.9209C47.0933 31.1921 45.9837 32.2227 44.6147 32.2227H4.95557C3.58685 32.2224 2.47705 31.1919 2.47705 29.9209V29.7432H47.0933ZM15.9868 0C16.4568 1.98132e-05 16.8481 0.338943 17.0776 0.749023C17.5938 1.67116 18.632 2.30176 19.8286 2.30176H29.7427C30.9393 2.30176 31.9775 1.67116 32.4937 0.749023C32.7232 0.338971 33.1145 0 33.5845 0H44.6147C45.9837 0 47.0933 1.0306 47.0933 2.30176V26.0254H2.47705V2.30176C2.47705 1.03075 3.58684 0.000239463 4.95557 0H15.9868Z" fill="white"/>
</svg>
