<svg xmlns="http://www.w3.org/2000/svg" width="80" height="80" viewBox="0 0 80 80" fill="none">
  <circle cx="40" cy="40" r="40" fill="#FF6600" opacity="0.1"/>
  <path d="M54 26H26C24.9 26 24 26.9 24 28V52C24 53.1 24.9 54 26 54H54C55.1 54 56 53.1 56 52V28C56 26.9 55.1 26 54 26Z" stroke="white" stroke-width="2.5" stroke-linecap="round" stroke-linejoin="round"/>
  <path d="M44 38C46.2091 38 48 36.2091 48 34C48 31.7909 46.2091 30 44 30C41.7909 30 40 31.7909 40 34C40 36.2091 41.7909 38 44 38Z" stroke="white" stroke-width="2.5" stroke-linecap="round" stroke-linejoin="round"/>
  <path d="M36 42H52C52 45.3137 48.4183 48 44 48C39.5817 48 36 45.3137 36 42Z" stroke="white" stroke-width="2.5" stroke-linecap="round" stroke-linejoin="round"/>
  <path d="M32 32H28" stroke="white" stroke-width="2.5" stroke-linecap="round" stroke-linejoin="round"/>
  <path d="M32 40H28" stroke="white" stroke-width="2.5" stroke-linecap="round" stroke-linejoin="round"/>
  <path d="M32 48H28" stroke="white" stroke-width="2.5" stroke-linecap="round" stroke-linejoin="round"/>
</svg> 