<svg width="50" height="44" viewBox="0 0 50 44" fill="none" xmlns="http://www.w3.org/2000/svg">
<path d="M28.5596 0C31.534 0.000157023 34.2218 1.77284 35.3936 4.50684L36.1611 6.29785C36.7793 7.74011 38.1984 8.6748 39.7676 8.6748C45.1834 8.67504 49.574 13.0656 49.5742 18.4814V30.9834C49.5741 37.828 44.0252 43.3769 37.1807 43.377H12.3936C5.54896 43.3769 0.000106534 37.828 0 30.9834V18.4814C0.000204601 13.0656 4.39079 8.67501 9.80664 8.6748C11.3757 8.6748 12.7939 7.73992 13.4121 6.29785L14.1797 4.50684C15.3514 1.77282 18.0401 0.000134217 21.0146 0H28.5596ZM24.7881 15.3613C20.2674 15.3616 16.6027 19.0271 16.6025 23.5479C16.6028 28.0685 20.2674 31.7331 24.7881 31.7334C29.3088 31.7332 32.9744 28.0686 32.9746 23.5479C32.9744 19.0271 29.3089 15.3615 24.7881 15.3613ZM24.7881 16.8613C28.4804 16.8615 31.4744 19.8555 31.4746 23.5479C31.4744 27.2401 28.4804 30.2332 24.7881 30.2334C21.0958 30.2331 18.1028 27.2401 18.1025 23.5479C18.1027 19.8555 21.0958 16.8616 24.7881 16.8613Z" fill="white"/>
</svg>
