<?xml version="1.0" encoding="UTF-8"?>
<svg width="60" height="60" viewBox="0 0 60 60" xmlns="http://www.w3.org/2000/svg">
  <g fill="#5f93e3">
    <path d="M30 5C16.215 5 5 16.215 5 30C5 43.785 16.215 55 30 55C43.785 55 55 43.785 55 30C55 16.215 43.785 5 30 5ZM30 50C18.972 50 10 41.028 10 30C10 18.972 18.972 10 30 10C41.028 10 50 18.972 50 30C50 41.028 41.028 50 30 50Z"/>
    <path d="M22 26C23.105 26 24 24.88 24 23.5C24 22.12 23.105 21 22 21C20.895 21 20 22.12 20 23.5C20 24.88 20.895 26 22 26Z"/>
    <path d="M38 26C39.105 26 40 24.88 40 23.5C40 22.12 39.105 21 38 21C36.895 21 36 22.12 36 23.5C36 24.88 36.895 26 38 26Z"/>
    <path d="M20 38C20 38 23 33 30 33C37 33 40 38 40 38C40 38 37 43 30 43C23 43 20 38 20 38Z"/>
  </g>
</svg> 