<?xml version="1.0" encoding="UTF-8"?>
<svg id="_레이어_2" data-name="레이어 2" xmlns="http://www.w3.org/2000/svg" viewBox="0 0 130.95 26.47">
  <defs>
    <style>
      .cls-1 {
        fill: #c71927;
        stroke-width: 0px;
      }
    </style>
  </defs>
  <g id="Layer_1" data-name="Layer 1">
    <g>
      <g>
        <path class="cls-1" d="m44.33,2.22C42.56.83,39.99,0,36.54,0h-10.5v26.47h6.66v-8.47h3.84c3.45,0,6.03-.83,7.8-2.22,1.85-1.45,3.13-4.05,3.13-6.78s-1.29-5.33-3.13-6.78m-7.98,10.41h-3.65v-7.26h3.65c2.87,0,4.85,1.29,4.85,3.63s-1.99,3.63-4.85,3.63"/>
        <path class="cls-1" d="m0,3.09h.22c2.62,0,4.74,2.12,4.74,4.74v10.81c0,2.62-2.12,4.74-4.74,4.74h-.22v3.09h16.58v-3.09h-.22c-2.62,0-4.74-2.12-4.74-4.74V7.83c0-2.62,2.12-4.74,4.74-4.74h.22V0H0v3.09Z"/>
        <path class="cls-1" d="m98.05,15.78c1.85-1.45,3.13-4.05,3.13-6.78s-1.29-5.33-3.13-6.78c-1.77-1.39-4.34-2.22-7.8-2.22h-10.39v26.47h6.66v-8.47h3.61l5.95,8.47h7.23l-7.04-9.63c.66-.3,1.25-.66,1.77-1.06m-11.52-10.41h3.3c2.87,0,4.85,1.29,4.85,3.63s-1.99,3.63-4.85,3.63h-3.3v-7.26Z"/>
        <path class="cls-1" d="m57.82,0l-10.12,26.47h6.56l1.91-5.41h11.03l1.91,5.41h6.56L65.55,0h-7.73Zm.26,15.65l3.6-10.2,3.6,10.2h-7.2Z"/>
      </g>
      <polygon class="cls-1" points="119.17 12.43 130.26 0 122.5 0 113.13 10.5 113.13 0 106.47 0 106.47 26.47 113.13 26.47 113.13 19.2 115.17 16.91 123.15 26.47 130.95 26.47 119.17 12.43"/>
    </g>
  </g>
</svg>