<svg xmlns="http://www.w3.org/2000/svg" xml:space="preserve" width="690.69525" height="500" viewBox="0 0 690.69529 499.99998"><defs><clipPath id="a" clipPathUnits="userSpaceOnUse"><path d="M318.445 603.781h147.458v-29.408H318.445Z"/></clipPath><clipPath id="b" clipPathUnits="userSpaceOnUse"><path d="M374.431 662.733h35.486v-53.137h-35.486z"/></clipPath><clipPath id="c" clipPathUnits="userSpaceOnUse"><path d="M386.211 681.12h20.671v-32.409h-20.671z"/></clipPath></defs><g clip-path="url(#a)" transform="matrix(4.68401 0 0 -4.68401 -1491.6 3190.375)"><path d="m0 0-5.856 13.733-9.797-22.929c-.968-1.778-2.387-2.677-4.302-2.677h-1.373l11.396 26.689c.518 1.144 1.396 1.942 2.59 2.39l1.238.307.248-.02.248.02 1.239-.307c1.216-.448 2.072-1.246 2.59-2.39L9.617-11.873H8.266c-1.914 0-3.356.899-4.325 2.677L1.779-4.128" style="fill:#005f98;fill-opacity:1;fill-rule:nonzero;stroke:none" transform="translate(392.12 586.247)"/><path d="M0 0a3.985 3.985 0 0 0-1.206 2.902V17.35L-8.151 2.902a4.4 4.4 0 0 0-1.104-1.185 4.176 4.176 0 0 0-2.227-.776 4.245 4.245 0 0 0-2.248.776c-.429.306-.777.716-1.083 1.185l-6.966 14.448V2.902A3.985 3.985 0 0 0-22.985 0c-.797-.796-2.14-1.205-3.263-1.205v29.386c1.123 0 2.855-.409 3.652-1.205.347-.348.633-.757.837-1.207l.021.021 10.256-21.601L-1.247 25.79l.041-.021c.204.45.47.859.817 1.207.797.796 2.528 1.205 3.673 1.205V-1.205C2.139-1.205.797-.796 0 0" style="fill:#00a0ca;fill-opacity:1;fill-rule:nonzero;stroke:none" transform="translate(462.62 575.6)"/><path d="M0 0c0 1.124.409 2.105 1.205 2.901.798.819 1.779 1.227 2.923 1.227h1.423c2.922 0 5.395 1.022 7.459 3.086s3.106 4.557 3.106 7.479c0 2.923-1.042 5.395-3.106 7.459-2.064 2.065-4.537 3.107-7.459 3.107h-7.296V4.128c0-1.144-.409-2.125-1.205-2.923C-3.747.409-4.729 0-5.873 0v29.386H5.551c3.964 0 7.336-1.348 10.116-4.046 2.799-2.677 4.311-6.028 4.557-10.055l.02-.592-.02-.572c-.225-3.924-1.656-7.193-4.292-9.809C13.071 1.43 9.617 0 5.551 0Z" style="fill:#00a0ca;fill-opacity:1;fill-rule:nonzero;stroke:none" transform="translate(349.03 574.394)"/><path d="M0 0c-3.278 2.146-4.904 4.925-4.904 8.317v18.944c1.359 0 2.525-.409 3.471-1.205C-.486 25.259 0 24.277 0 23.134V8.317C0 4.127.728 1.596 2.185.349 3.666-.897 5.438-1.51 7.526-1.51c2.063 0 3.836.613 5.317 1.859 1.481 1.247 2.209 3.137 2.209 7.968v14.817c0 1.143.486 2.125 1.433 2.922.946.796 2.112 1.205 3.447 1.205V8.317c0-3.392-1.626-6.171-4.88-8.317-2.185-1.409-4.686-2.125-7.526-2.125S2.185-1.409 0 0" style="fill:#00a0ca;fill-opacity:1;fill-rule:nonzero;stroke:none" transform="translate(409.572 576.52)"/><path d="M0 0h-.163v29.386h19.557a3.985 3.985 0 0 0-1.206-2.902 3.986 3.986 0 0 0-2.902-1.205H3.965V4.128h11.321a3.979 3.979 0 0 0 2.902-1.206c.797-.797 1.206-1.777 1.206-2.922Z" style="fill:#00a0ca;fill-opacity:1;fill-rule:nonzero;stroke:none" transform="translate(318.608 574.394)"/><path d="M0 0c0 1.145.409 2.125 1.206 2.922a3.979 3.979 0 0 0 2.902 1.206h7.888c0-1.145-.409-2.125-1.206-2.923A3.985 3.985 0 0 0 7.889 0Z" style="fill:#00a0ca;fill-opacity:1;fill-rule:nonzero;stroke:none" transform="translate(323.492 587.003)"/></g><g clip-path="url(#b)" transform="matrix(4.68401 0 0 -4.68401 -1491.6 3190.375)"><path d="M0 0c-2.153-1.363-6.661-5.249-6.661-12.719v-16.706c0-1.186.582-3.003 2.431-1.842 1.849 1.161 26.621 17.135 28.9 18.624 2.28 1.489 4.154 3.962 4.154 7.47v26.296c0 .59-.192.351-.23.175-.318-1.465-1.208-3.642-3.873-5.374C20.567 13.223 0 0 0 0" style="fill:#005f98;fill-opacity:1;fill-rule:nonzero;stroke:none" transform="translate(381.093 641.235)"/></g><g clip-path="url(#c)" transform="matrix(4.68401 0 0 -4.68401 -1491.6 3190.375)"><path d="M0 0v30.627c0 1.741 1.168 2.095 2.384 1.54 1.215-.556 10.004-4.846 13.272-6.41 3.267-1.565 5.015-4.265 5.015-7.268s-.756-5.666-4.354-7.968A8267.227 8267.227 0 0 1 0 0" style="fill:#00a0ca;fill-opacity:1;fill-rule:nonzero;stroke:none" transform="translate(386.211 648.711)"/></g></svg>