<svg xmlns="http://www.w3.org/2000/svg" width="359.34863mm" height="114.78767mm" viewBox="0 0 359.34863 114.78767"><path d="M0 0c-4.576-.419-4.635-11.56-4.67-17.546-.013-1.362-.02-2.526-.073-3.308a.448.448 0 0 0-.44-.422h-.012a.448.448 0 0 0-.445.427c-.076 1.204-.129 3.23-.19 5.574-.161 5.848-.393 14.689-1.166 16.754a.45.45 0 0 0 .017.349c1.125 2.377 1.826 11.144 2.091 17.913.01.238.218.428.456.431a.451.451 0 0 0 .441-.434c.02-.765.016-1.703-.001-2.799C-4.067 11.565-4.188 2.587.129.867A.472.472 0 0 0 .405.369.436.436 0 0 0 0 0m-9.677 1.655c-.85-2.311-1.329-14.647-1.612-22.011-.089-2.23-.153-3.991-.217-5.029a.44.44 0 0 0-.443-.41.44.44 0 0 0-.451.41c-.081 1.056-.17 2.913-.299 5.257-.388 7.566-1.051 20.219-1.932 22.495a.465.465 0 0 0 .014.349c1.29 2.825 1.703 17.974 1.837 22.956l.005.228a.453.453 0 0 0 .448.438.452.452 0 0 0 .449-.428l.025-.507c.209-5.111.857-20.65 2.162-23.399a.437.437 0 0 0 .014-.349m-7.798.8c-.852-2.311-1.329-17.575-1.61-26.684-.105-3.227-.182-5.782-.253-6.996a.446.446 0 0 0-.445-.421.447.447 0 0 0-.45.416c-.082 1.21-.204 3.748-.356 6.977-.412 9.115-1.108 24.37-2 26.67a.462.462 0 0 0 .009.354c1.245 2.72 1.679 20.331 1.843 26.966.017.652.034 1.215.049 1.658 0 .24.197.436.442.436a.448.448 0 0 0 .448-.43c.021-.437.044-.993.066-1.654.266-6.631.96-24.238 2.243-26.94a.436.436 0 0 0 .014-.352m-7.957-.155c-.85-2.3-1.323-14.973-1.608-22.548-.085-2.338-.154-4.19-.216-5.242a.452.452 0 0 0-.448-.425.444.444 0 0 0-.448.416c-.075 1.029-.168 2.772-.288 4.99-.39 7.367-1.05 19.703-1.938 21.997a.463.463 0 0 0 .017.355c1.262 2.763 1.683 18.323 1.822 23.433l.015.505a.438.438 0 0 0 .447.436.44.44 0 0 0 .449-.418l.012-.241c.202-4.97.84-20.111 2.167-22.921a.434.434 0 0 0 .017-.337m-7.419-.996c-.752-2.022-.908-10.365-1.031-16.442-.046-2.49-.088-4.641-.158-5.904a.455.455 0 0 0-.445-.422.45.45 0 0 0-.453.422c-.054.759-.068 1.885-.088 3.186-.081 6.044-.225 17.291-4.833 17.686a.458.458 0 0 0-.408.39.444.444 0 0 0 .274.477c4.355 1.752 3.877 10.789 3.815 16.193a75.153 75.153 0 0 0-.008 2.657c.008.25.199.44.449.44a.446.446 0 0 0 .454-.436c.181-4.472 1.12-15.17 2.415-17.896a.423.423 0 0 0 .017-.351m-18.017 38.793v-82.653c9.364 2.26 19.921 3.535 31.091 3.535 11.131 0 21.646-1.263 30.986-3.511v82.629z" style="fill:#0f868e;fill-opacity:1;fill-rule:nonzero;stroke:none" transform="matrix(1.38879 0 0 -1.38879 70.645 55.686)"/><path d="M0 0h-2.457v-15.188h6.073v2.125H0Zm-12.377 0h-2.464v-15.188h6.072v2.125h-3.608zm-12.276-15.188h2.455V0h-2.455zm-9.838 9.292h-2.598L-37.085 0h-2.461v-15.188h2.457v7.135h2.598v-7.135h2.454V0h-2.454zm-14.703-.364c-.364-.369-1.133-.416-1.702-.357v4.603c1.282-.07 1.86-.196 2.149-1.262.256-.923.287-2.228-.447-2.984m.769-2.127c.673.314 1.188.753 1.513 1.322.358.624.526 1.409.526 2.567 0 1.295-.287 2.631-.896 3.375-.606.738-1.531 1.129-2.703 1.123h-2.981v-15.188h2.212v6.4h.411l2.303-6.4h2.711l-.147.337zm-16.477-1.412 1.016 6.423h.201l1.081-6.423zM-62.765 0h-2.007l-3.378-15.188h2.386l.634 3.417h2.726l.621-3.417h2.397l-.068.288zm-17.402-2.146h2.42v-13.042h2.461v13.042h2.432V0h-7.313zm94.178-4.978c-.47.864-1.147 1.882-2.032 3.045-.869 1.157-1.43 2.001-1.654 2.493-.242.498-.347.961-.347 1.365 0 .611.183 1.076.553 1.516.39.416.818.606 1.348.621.568 0 1.331-.135 2.023-.539l.348-.202v2.619l-.131.064c-.859.469-1.836.586-2.641.586-1.194 0-2.198-.448-2.951-1.35-.758-.891-1.138-2.069-1.138-3.452 0-.944.148-1.77.45-2.473.299-.686.735-1.433 1.339-2.232l1.514-2.061c.566-.768.961-1.362 1.152-1.781.205-.402.307-.844.307-1.322-.006-.709-.191-1.249-.577-1.688-.376-.425-.841-.589-1.466-.589-.365 0-.592.076-1.138.284-.424.161-.947.507-1.055.551l-.307.12v-2.748l.12-.064a5.653 5.653 0 0 1 2.686-.739h.015c1.259 0 2.318.46 3.112 1.363.797.917 1.196 2.112 1.196 3.534 0 1.148-.247 2.174-.726 3.079M-87.208-4.079c-.878 1.157-1.43 2.001-1.67 2.493-.233.498-.338.961-.338 1.365 0 .611.179 1.076.555 1.516.385.416.816.606 1.348.621.56 0 1.324-.114 2.019-.539l.345-.202v2.619l-.132.064c-.86.469-1.824.586-2.647.586-1.181 0-2.186-.448-2.942-1.35-.757-.891-1.139-2.069-1.135-3.452 0-.944.15-1.77.448-2.473.29-.686.744-1.433 1.333-2.232l1.526-2.061c.564-.768.95-1.362 1.153-1.781.202-.402.296-.844.299-1.322-.003-.709-.189-1.249-.576-1.688-.376-.425-.841-.589-1.46-.601-.371.012-.598.088-1.142.296-.431.161-.949.507-1.051.551l-.319.12v-2.748l.131-.064a5.635 5.635 0 0 1 2.685-.739h.007c1.264 0 2.325.46 3.119 1.363.796.917 1.192 2.112 1.192 3.534 0 1.148-.24 2.174-.727 3.079-.48.864-1.148 1.882-2.021 3.045" style="fill:#0f868e;fill-opacity:1;fill-rule:nonzero;stroke:none" transform="matrix(1.38879 0 0 -1.38879 287.071 74.698)"/><path d="M0 0h-27.364l.455-3.47H.152V0Z" style="fill:#7b7678;fill-opacity:1;fill-rule:nonzero;stroke:none" transform="matrix(1.38879 0 0 -1.38879 239.215 50.705)"/><path d="M0 0h-16.028v-3.026h12.913v-1.377H-16.01v-7.218H.278v3.042h-12.933v1.371H.155V0Z" style="fill:#7b7678;fill-opacity:1;fill-rule:nonzero;stroke:none" transform="matrix(1.38879 0 0 -1.38879 315.004 44.073)"/><path d="m0 0 .55-1.731C.878-3.369.536-7.319.419-8.125a18.169 18.169 0 0 0-.525-2.521c-.509-1.71-1.363-4.028-2.544-5.341-1.169-1.307-2.305-2.244-3.284-2.71l-.302-.144-.629-.296 2.313-3.012.746.439c1.386.801 2.87 2.131 4.407 3.947a13.997 13.997 0 0 1 2.061 3.244 14.734 14.734 0 0 1 1.988-2.942c1.488-1.717 2.831-2.994 3.977-3.795l.276-.187.54-.361 2.199 3.221-.825.439c-.966.519-2.069 1.462-3.186 2.714-1.227 1.374-2.106 4.108-2.521 5.612-.17.624-.285 1.286-.343 1.963-.071.735-.102 3.254-.102 4.082v3.295L0 .097Z" style="fill:#7b7678;fill-opacity:1;fill-rule:nonzero;stroke:none" transform="matrix(1.38879 0 0 -1.38879 128.573 22.26)"/><path d="m0 0 .361-3.75C.3-4.92.258-5.31.207-5.512l-.42-1.262c-.677-1.404-2.1-3.036-3.769-4.018-1.713-1.02-3.275-1.72-4.516-2.033l-1.146-.287 2.285-2.867.812.208c1.917.631 3.909 1.663 5.93 3.069 1.084.762 2.142 1.91 3.219 3.484.746-1.111 1.752-2.47 3.022-3.405a22.563 22.563 0 0 1 6.108-3.209l.812-.27 2.267 3.218-1.229.202c-1.373.238-3.337 1.178-5.389 2.588C6.487-8.919 5.41-7.53 4.994-5.966c-.073.276-.14 1.736-.16 2.447l-.03 1.785v.624z" style="fill:#7b7678;fill-opacity:1;fill-rule:nonzero;stroke:none" transform="matrix(1.38879 0 0 -1.38879 217.112 22.187)"/><path d="M0 0h-27.363l.454-3.47H.151V0Z" style="fill:#7b7678;fill-opacity:1;fill-rule:nonzero;stroke:none" transform="matrix(1.38879 0 0 -1.38879 359.139 50.705)"/><path d="M0 0c.735-1.532.779-3.079.779-3.079-.005-.006-.034-.724-.034-.724C.728-4.304.489-5.45.419-5.723L.054-6.736c-.671-1.407-2.255-3.018-3.926-4-1.715-1.02-3.275-1.72-4.518-2.034l-1.142-.287 2.281-2.866.822.208c1.91.631 3.9 1.668 5.922 3.069 1.091.761 2.143 1.913 3.22 3.484.749-1.111 1.763-2.477 3.025-3.405a22.38 22.38 0 0 1 6.104-3.209l.809-.27 2.268 3.218-1.225.202c-1.37.237-3.336 1.178-5.393 2.588C6.596-8.863 5.519-7.475 5.107-5.91c-.076.278-.139 1.723-.166 2.45l-.029 1.781v.624L0 0" style="fill:#7b7678;fill-opacity:1;fill-rule:nonzero;stroke:none" transform="matrix(1.38879 0 0 -1.38879 336.882 22.265)"/><path d="M0 0a3.493 3.493 0 0 0-2.213-.773c-.848.008-1.535.246-2.206.773-.622.492-.905 1.116-.911 2.013.006.905.279 1.508.912 2.022a3.447 3.447 0 0 0 2.209.762 3.484 3.484 0 0 0 2.211-.762c.628-.514.903-1.117.906-2.022C.905 1.116.624.492 0 0m6.323 8.688h-16.77V5.286h2.616c-.639-.876-.976-1.934-.976-3.153v-.062c0-1.851.721-3.369 2.082-4.407a7.334 7.334 0 0 1 4.516-1.526c1.688 0 3.201.495 4.514 1.482 1.361 1 2.084 2.512 2.084 4.372v.029c0 1.269-.354 2.36-1.014 3.265h2.948z" style="fill:#7b7678;fill-opacity:1;fill-rule:nonzero;stroke:none" transform="matrix(1.38879 0 0 -1.38879 177.868 41.175)"/><path d="m0 0-.088-.009h.003l-.965-.114c-1.351-.152-3.313-.299-5.814-.44a122.236 122.236 0 0 0-6.772-.208h-7.061v-3.578l8.142.033 6.468.237c2.301.146 4.076.299 5.291.46l.379.047.5.073V.009z" style="fill:#7b7678;fill-opacity:1;fill-rule:nonzero;stroke:none" transform="matrix(1.38879 0 0 -1.38879 191.26 47.519)"/><path d="M0 0h-14.746v-20.591h6.044l4.883.164c1.951.113 3.793.3 5.473.564l.071.009.061.082-.208 3.392-4.722-.442-4.058-.161-3.499-.027v5.568H-.585v3.54h-10.116v4.506H.152V0Z" style="fill:#7b7678;fill-opacity:1;fill-rule:nonzero;stroke:none" transform="matrix(1.38879 0 0 -1.38879 266.038 23.481)"/><path d="m0 0 .315-3.659 1.641-.173.807-.085-.031.038c.111-.038.548-.064 2.31-.155.926-.035 3.287-.056 4.701.047l.777.055-.316 3.603L6.243-.46a36.83 36.83 0 0 0-5.491.436l-.759.12z" style="fill:#7b7678;fill-opacity:1;fill-rule:nonzero;stroke:none" transform="matrix(1.38879 0 0 -1.38879 167.041 21.508)"/><path d="M0 0a3.447 3.447 0 0 0-2.106-.706c-.817.009-1.47.223-2.109.706-.592.451-.852 1.012-.866 1.832.014.823.269 1.371.866 1.834.63.472 1.3.691 2.109.691.798 0 1.487-.225 2.106-.691.598-.463.858-1.011.866-1.834C.858 1.012.595.451 0 0m6.036 7.927H-9.97V4.806h2.493c-.603-.794-.925-1.755-.925-2.866v-.058c0-1.689.685-3.08 1.988-4.027 1.266-.928 2.715-1.397 4.308-1.397 1.611 0 3.052.457 4.31 1.356 1.299.917 1.987 2.294 1.987 4v.021c0 1.157-.337 2.147-.962 2.971h2.807z" style="fill:#7b7678;fill-opacity:1;fill-rule:nonzero;stroke:none" transform="matrix(1.38879 0 0 -1.38879 298.59 37.66)"/><path d="m0 0 .007-.092L.2-3.359l.482-.059 1.966-.228s-.009.017-.026.035c.107-.035.533-.071 2.196-.191l3.45-.088 1.036.018.751.035-.321 3.32-.567-.034-.676-.033L7.085-.59l-1.131.039a35.812 35.812 0 0 0-5.228.527l-.729.123z" style="fill:#7b7678;fill-opacity:1;fill-rule:nonzero;stroke:none" transform="matrix(1.38879 0 0 -1.38879 288.327 19.804)"/><path d="M0 0v3.61h-4.229v7.027c0 1.35.255 3.008.255 3.008h-4.181s.254-1.658.254-3.008v-21.373c0-1.357-.254-3.208-.254-3.208h4.181s-.255 1.851-.255 3.208V0Z" style="fill:#7b7678;fill-opacity:1;fill-rule:nonzero;stroke:none" transform="matrix(1.38879 0 0 -1.38879 282.172 39.722)"/><path d="M0 0h-4.186s.256-1.657.256-3.005v-21.376c0-1.353-.256-3.208-.256-3.208H0s-.256 1.855-.256 3.208v21.376C-.256-1.657 0 0 0 0" style="fill:#7b7678;fill-opacity:1;fill-rule:nonzero;stroke:none" transform="matrix(1.38879 0 0 -1.38879 195.16 20.732)"/><path d="M0 0v-12.649c0-1.354-.246-3.208-.246-3.208h4.065s-.246 1.854-.246 3.208V8.724c0 1.35.246 3.006.246 3.006H-.246S0 10.074 0 8.724V3.675" style="fill:#7b7678;fill-opacity:1;fill-rule:nonzero;stroke:none" transform="matrix(1.38879 0 0 -1.38879 149.014 37.102)"/><path d="M0 0v13.883c0 .876.253 1.953.253 1.953h-4.104s.252-1.077.252-1.953V0Z" style="fill:#7b7678;fill-opacity:1;fill-rule:nonzero;stroke:none" transform="matrix(1.38879 0 0 -1.38879 315.17 42.708)"/><path d="M0 0h-5.448v-3.675H0" style="fill:#7b7678;fill-opacity:1;fill-rule:nonzero;stroke:none" transform="matrix(1.38879 0 0 -1.38879 149.014 31.998)"/></svg>